<svg width="89" height="60" viewBox="0 0 89 60" fill="none" xmlns="http://www.w3.org/2000/svg">
<path d="M15.4664 34.76H7.26641L4.86641 42.24H8.06641V43.44H0.0664062V42.24H2.86641L12.8664 12.24H14.8664L25.6664 42.24H28.4664V43.44H15.2664V42.24H18.0664L15.4664 34.76ZM7.74641 33.28H14.9464L11.2264 22.44L7.74641 33.28Z" fill="#F06171"/>
<path d="M45.6248 12.36C47.4115 12.36 48.9448 12.56 50.2248 12.96C51.5048 13.3333 52.5582 13.8533 53.3848 14.52C54.2115 15.1867 54.8248 15.9733 55.2248 16.88C55.6248 17.7867 55.8248 18.7733 55.8248 19.84C55.8248 20.88 55.6782 21.7867 55.3848 22.56C55.0915 23.3067 54.6648 23.9467 54.1048 24.48C53.5715 25.0133 52.9182 25.4533 52.1448 25.8C51.3715 26.12 50.5048 26.36 49.5448 26.52C51.7848 26.7867 53.5582 27.6 54.8648 28.96C56.1982 30.2933 56.8648 32.1733 56.8648 34.6C56.8648 36.3067 56.5848 37.7333 56.0248 38.88C55.4915 40 54.7715 40.8933 53.8648 41.56C52.9582 42.2533 51.9048 42.7333 50.7048 43C49.5315 43.2933 48.3048 43.44 47.0248 43.44H29.6648V42.2H32.4648V13.6H29.6648V12.36H45.6248ZM43.6648 26.52C44.3048 26.52 44.9048 26.3867 45.4648 26.12C46.0248 25.8267 46.5048 25.4133 46.9048 24.88C47.3048 24.3467 47.6248 23.7067 47.8648 22.96C48.1048 22.1867 48.2248 21.32 48.2248 20.36C48.2248 18.0667 47.7582 16.3733 46.8248 15.28C45.8915 14.16 44.7582 13.6 43.4248 13.6H40.0648V26.52H43.6648ZM44.0648 42.2C45.0782 42.2 45.9182 42 46.5848 41.6C47.2782 41.2267 47.8248 40.7067 48.2248 40.04C48.6248 39.3733 48.9048 38.6 49.0648 37.72C49.2248 36.8133 49.3048 35.8533 49.3048 34.84C49.3048 34.0133 49.2382 33.2 49.1048 32.4C48.9715 31.5733 48.7315 30.84 48.3848 30.2C48.0648 29.5333 47.5982 29 46.9848 28.6C46.3715 28.2 45.5848 28 44.6248 28H40.0648V42.2H44.0648Z" fill="#F47C8A"/>
<path d="M75.8592 12.36C77.6459 12.36 79.1792 12.56 80.4592 12.96C81.7392 13.3333 82.7926 13.8533 83.6192 14.52C84.4459 15.1867 85.0592 15.9733 85.4592 16.88C85.8592 17.7867 86.0592 18.7733 86.0592 19.84C86.0592 20.88 85.9126 21.7867 85.6192 22.56C85.3259 23.3067 84.8992 23.9467 84.3392 24.48C83.8059 25.0133 83.1526 25.4533 82.3792 25.8C81.6059 26.12 80.7392 26.36 79.7792 26.52C82.0192 26.7867 83.7926 27.6 85.0992 28.96C86.4326 30.2933 87.0992 32.1733 87.0992 34.6C87.0992 36.3067 86.8192 37.7333 86.2592 38.88C85.7259 40 85.0059 40.8933 84.0992 41.56C83.1926 42.2533 82.1392 42.7333 80.9392 43C79.7659 43.2933 78.5392 43.44 77.2592 43.44H59.8992V42.2H62.6992V13.6H59.8992V12.36H75.8592ZM73.8992 26.52C74.5392 26.52 75.1392 26.3867 75.6992 26.12C76.2592 25.8267 76.7392 25.4133 77.1392 24.88C77.5392 24.3467 77.8592 23.7067 78.0992 22.96C78.3392 22.1867 78.4592 21.32 78.4592 20.36C78.4592 18.0667 77.9926 16.3733 77.0592 15.28C76.1259 14.16 74.9926 13.6 73.6592 13.6H70.2992V26.52H73.8992ZM74.2992 42.2C75.3126 42.2 76.1526 42 76.8192 41.6C77.5126 41.2267 78.0592 40.7067 78.4592 40.04C78.8592 39.3733 79.1392 38.6 79.2992 37.72C79.4592 36.8133 79.5392 35.8533 79.5392 34.84C79.5392 34.0133 79.4726 33.2 79.3392 32.4C79.2059 31.5733 78.9659 30.84 78.6192 30.2C78.2992 29.5333 77.8326 29 77.2192 28.6C76.6059 28.2 75.8192 28 74.8592 28H70.2992V42.2H74.2992Z" fill="#F797A2"/>
<path d="M7.75504 53.596H5.91004L5.37004 55.279H6.09004V55.549H4.29004V55.279H4.92004L7.17004 48.529H7.62004L10.05 55.279H10.68V55.549H7.71004V55.279H8.34004L7.75504 53.596ZM6.01804 53.263H7.63804L6.80104 50.824L6.01804 53.263ZM10.9497 48.565H13.2807V50.644C13.4607 50.542 13.6257 50.473 13.7757 50.437C13.9317 50.401 14.1147 50.383 14.3247 50.383C14.6907 50.383 15.0147 50.434 15.2967 50.536C15.5847 50.632 15.8277 50.788 16.0257 51.004C16.2237 51.22 16.3737 51.502 16.4757 51.85C16.5777 52.192 16.6287 52.606 16.6287 53.092C16.6287 53.422 16.5957 53.74 16.5297 54.046C16.4697 54.352 16.3557 54.625 16.1877 54.865C16.0197 55.099 15.7917 55.285 15.5037 55.423C15.2217 55.567 14.8557 55.639 14.4057 55.639C14.1657 55.639 13.9617 55.606 13.7937 55.54C13.6317 55.474 13.4637 55.381 13.2897 55.261V55.549H10.9497V55.27H11.5797V48.844H10.9497V48.565ZM13.2807 54.766C13.3647 54.982 13.4817 55.132 13.6317 55.216C13.7877 55.306 13.9467 55.351 14.1087 55.351C14.3007 55.351 14.4507 55.318 14.5587 55.252C14.6667 55.186 14.7477 55.105 14.8017 55.009C14.8557 54.913 14.8887 54.808 14.9007 54.694C14.9127 54.574 14.9187 54.466 14.9187 54.37V51.589C14.9187 51.259 14.8497 51.022 14.7117 50.878C14.5797 50.734 14.3787 50.662 14.1087 50.662C13.9827 50.662 13.8747 50.68 13.7847 50.716C13.6947 50.752 13.6167 50.797 13.5507 50.851C13.4907 50.899 13.4367 50.953 13.3887 51.013C13.3467 51.073 13.3107 51.127 13.2807 51.175V54.766ZM19.4661 48.961C19.4661 49.075 19.4421 49.183 19.3941 49.285C19.3521 49.387 19.2921 49.477 19.2141 49.555C19.1421 49.627 19.0551 49.684 18.9531 49.726C18.8571 49.768 18.7521 49.789 18.6381 49.789C18.4041 49.789 18.2061 49.711 18.0441 49.555C17.8821 49.393 17.8011 49.195 17.8011 48.961C17.8011 48.727 17.8821 48.532 18.0441 48.376C18.2061 48.214 18.4041 48.133 18.6381 48.133C18.7521 48.133 18.8571 48.154 18.9531 48.196C19.0551 48.238 19.1421 48.298 19.2141 48.376C19.2921 48.448 19.3521 48.535 19.3941 48.637C19.4421 48.733 19.4661 48.841 19.4661 48.961ZM19.5651 55.27H20.1951V55.549H17.2251V55.27H17.8551V50.743H17.2251V50.464H19.5651V55.27ZM25.9159 55.27H26.4379V55.549H24.2059V55.261C24.0319 55.381 23.8609 55.474 23.6929 55.54C23.5309 55.606 23.3299 55.639 23.0899 55.639C22.6399 55.639 22.2709 55.567 21.9829 55.423C21.7009 55.285 21.4759 55.099 21.3079 54.865C21.1399 54.625 21.0229 54.352 20.9569 54.046C20.8969 53.74 20.8669 53.422 20.8669 53.092C20.8669 52.606 20.9179 52.192 21.0199 51.85C21.1219 51.502 21.2719 51.22 21.4699 51.004C21.6679 50.788 21.9079 50.632 22.1899 50.536C22.4779 50.434 22.8049 50.383 23.1709 50.383C23.3809 50.383 23.5579 50.401 23.7019 50.437C23.8519 50.473 24.0169 50.542 24.1969 50.644V48.844H23.5669V48.565H25.9159V55.27ZM24.2149 51.175C24.1849 51.127 24.1459 51.073 24.0979 51.013C24.0559 50.953 24.0019 50.899 23.9359 50.851C23.8759 50.797 23.8009 50.752 23.7109 50.716C23.6209 50.68 23.5129 50.662 23.3869 50.662C23.1169 50.662 22.9129 50.734 22.7749 50.878C22.6429 51.022 22.5769 51.259 22.5769 51.589V54.37C22.5769 54.466 22.5829 54.574 22.5949 54.694C22.6069 54.808 22.6399 54.913 22.6939 55.009C22.7479 55.105 22.8289 55.186 22.9369 55.252C23.0449 55.318 23.1949 55.351 23.3869 55.351C23.5489 55.351 23.7049 55.306 23.8549 55.216C24.0109 55.132 24.1309 54.982 24.2149 54.766V51.175ZM31.9309 54.505C31.8769 54.631 31.8019 54.763 31.7059 54.901C31.6099 55.033 31.4839 55.153 31.3279 55.261C31.1719 55.369 30.9799 55.456 30.7519 55.522C30.5239 55.594 30.2479 55.63 29.9239 55.63C29.3599 55.63 28.8949 55.561 28.5289 55.423C28.1629 55.291 27.8749 55.111 27.6649 54.883C27.4609 54.649 27.3169 54.382 27.2329 54.082C27.1549 53.776 27.1159 53.455 27.1159 53.119C27.1159 52.525 27.1819 52.048 27.3139 51.688C27.4519 51.328 27.6379 51.052 27.8719 50.86C28.1059 50.662 28.3819 50.533 28.6999 50.473C29.0239 50.413 29.3719 50.383 29.7439 50.383C30.2059 50.383 30.5899 50.449 30.8959 50.581C31.2079 50.707 31.4569 50.893 31.6429 51.139C31.8289 51.379 31.9609 51.673 32.0389 52.021C32.1169 52.369 32.1589 52.759 32.1649 53.191H28.8259V53.83C28.8259 54.13 28.8499 54.379 28.8979 54.577C28.9519 54.769 29.0269 54.922 29.1229 55.036C29.2249 55.156 29.3479 55.237 29.4919 55.279C29.6419 55.327 29.8129 55.351 30.0049 55.351C30.3649 55.351 30.6739 55.264 30.9319 55.09C31.1899 54.916 31.3729 54.655 31.4809 54.307L31.9309 54.505ZM29.6989 50.662C29.5609 50.662 29.4379 50.683 29.3299 50.725C29.2219 50.767 29.1289 50.842 29.0509 50.95C28.9789 51.058 28.9219 51.208 28.8799 51.4C28.8439 51.586 28.8259 51.829 28.8259 52.129V52.876H30.3829V52.021C30.3949 51.529 30.3499 51.181 30.2479 50.977C30.1459 50.767 29.9629 50.662 29.6989 50.662ZM38.9215 48.556C39.3235 48.556 39.6685 48.601 39.9565 48.691C40.2445 48.775 40.4815 48.892 40.6675 49.042C40.8535 49.192 40.9915 49.369 41.0815 49.573C41.1715 49.777 41.2165 49.999 41.2165 50.239C41.2165 50.473 41.1835 50.677 41.1175 50.851C41.0515 51.019 40.9555 51.163 40.8295 51.283C40.7095 51.403 40.5625 51.502 40.3885 51.58C40.2145 51.652 40.0195 51.706 39.8035 51.742C40.3075 51.802 40.7065 51.985 41.0005 52.291C41.3005 52.591 41.4505 53.014 41.4505 53.56C41.4505 53.944 41.3875 54.265 41.2615 54.523C41.1415 54.775 40.9795 54.976 40.7755 55.126C40.5715 55.282 40.3345 55.39 40.0645 55.45C39.8005 55.516 39.5245 55.549 39.2365 55.549H35.3305V55.27H35.9605V48.835H35.3305V48.556H38.9215ZM38.4805 51.742C38.6245 51.742 38.7595 51.712 38.8855 51.652C39.0115 51.586 39.1195 51.493 39.2095 51.373C39.2995 51.253 39.3715 51.109 39.4255 50.941C39.4795 50.767 39.5065 50.572 39.5065 50.356C39.5065 49.84 39.4015 49.459 39.1915 49.213C38.9815 48.961 38.7265 48.835 38.4265 48.835H37.6705V51.742H38.4805ZM38.5705 55.27C38.7985 55.27 38.9875 55.225 39.1375 55.135C39.2935 55.051 39.4165 54.934 39.5065 54.784C39.5965 54.634 39.6595 54.46 39.6955 54.262C39.7315 54.058 39.7495 53.842 39.7495 53.614C39.7495 53.428 39.7345 53.245 39.7045 53.065C39.6745 52.879 39.6205 52.714 39.5425 52.57C39.4705 52.42 39.3655 52.3 39.2275 52.21C39.0895 52.12 38.9125 52.075 38.6965 52.075H37.6705V55.27H38.5705ZM41.7643 56.53C41.7643 56.416 41.7883 56.308 41.8363 56.206C41.8783 56.104 41.9353 56.014 42.0073 55.936C42.0853 55.864 42.1753 55.804 42.2773 55.756C42.3793 55.714 42.4873 55.693 42.6013 55.693C42.7153 55.693 42.8233 55.714 42.9253 55.756C43.0273 55.804 43.1143 55.864 43.1863 55.936C43.2643 56.014 43.3243 56.104 43.3663 56.206C43.4143 56.308 43.4383 56.416 43.4383 56.53C43.4383 56.68 43.3993 56.818 43.3213 56.944C43.4533 56.872 43.5673 56.773 43.6633 56.647C43.7593 56.521 43.8493 56.377 43.9333 56.215L44.3383 55.324L42.3313 50.752H41.9083V50.473H44.5993V50.752H44.0593L45.2203 53.605L46.4893 50.752H45.8323V50.473H47.3083V50.752H46.9393L44.2663 56.431C44.1883 56.599 44.0863 56.743 43.9603 56.863C43.8403 56.989 43.7053 57.088 43.5553 57.16C43.4053 57.238 43.2493 57.295 43.0873 57.331C42.9253 57.367 42.7633 57.379 42.6013 57.367C42.4873 57.367 42.3793 57.343 42.2773 57.295C42.1753 57.253 42.0853 57.193 42.0073 57.115C41.9353 57.043 41.8783 56.956 41.8363 56.854C41.7883 56.752 41.7643 56.644 41.7643 56.53ZM53.7048 48.556C54.1068 48.556 54.4518 48.601 54.7398 48.691C55.0278 48.775 55.2648 48.892 55.4508 49.042C55.6368 49.192 55.7748 49.369 55.8648 49.573C55.9548 49.777 55.9998 49.999 55.9998 50.239C55.9998 50.473 55.9668 50.677 55.9008 50.851C55.8348 51.019 55.7388 51.163 55.6128 51.283C55.4928 51.403 55.3458 51.502 55.1718 51.58C54.9978 51.652 54.8028 51.706 54.5868 51.742C55.0908 51.802 55.4898 51.985 55.7838 52.291C56.0838 52.591 56.2338 53.014 56.2338 53.56C56.2338 53.944 56.1708 54.265 56.0448 54.523C55.9248 54.775 55.7628 54.976 55.5588 55.126C55.3548 55.282 55.1178 55.39 54.8478 55.45C54.5838 55.516 54.3078 55.549 54.0198 55.549H50.1138V55.27H50.7438V48.835H50.1138V48.556H53.7048ZM53.2638 51.742C53.4078 51.742 53.5428 51.712 53.6688 51.652C53.7948 51.586 53.9028 51.493 53.9928 51.373C54.0828 51.253 54.1548 51.109 54.2088 50.941C54.2628 50.767 54.2898 50.572 54.2898 50.356C54.2898 49.84 54.1848 49.459 53.9748 49.213C53.7648 48.961 53.5098 48.835 53.2098 48.835H52.4538V51.742H53.2638ZM53.3538 55.27C53.5818 55.27 53.7708 55.225 53.9208 55.135C54.0768 55.051 54.1998 54.934 54.2898 54.784C54.3798 54.634 54.4428 54.46 54.4788 54.262C54.5148 54.058 54.5328 53.842 54.5328 53.614C54.5328 53.428 54.5178 53.245 54.4878 53.065C54.4578 52.879 54.4038 52.714 54.3258 52.57C54.2538 52.42 54.1488 52.3 54.0108 52.21C53.8728 52.12 53.6958 52.075 53.4798 52.075H52.4538V55.27H53.3538ZM61.8665 54.505C61.8125 54.631 61.7375 54.763 61.6415 54.901C61.5455 55.033 61.4195 55.153 61.2635 55.261C61.1075 55.369 60.9155 55.456 60.6875 55.522C60.4595 55.594 60.1835 55.63 59.8595 55.63C59.2955 55.63 58.8305 55.561 58.4645 55.423C58.0985 55.291 57.8105 55.111 57.6005 54.883C57.3965 54.649 57.2525 54.382 57.1685 54.082C57.0905 53.776 57.0515 53.455 57.0515 53.119C57.0515 52.525 57.1175 52.048 57.2495 51.688C57.3875 51.328 57.5735 51.052 57.8075 50.86C58.0415 50.662 58.3175 50.533 58.6355 50.473C58.9595 50.413 59.3075 50.383 59.6795 50.383C60.1415 50.383 60.5255 50.449 60.8315 50.581C61.1435 50.707 61.3925 50.893 61.5785 51.139C61.7645 51.379 61.8965 51.673 61.9745 52.021C62.0525 52.369 62.0945 52.759 62.1005 53.191H58.7615V53.83C58.7615 54.13 58.7855 54.379 58.8335 54.577C58.8875 54.769 58.9625 54.922 59.0585 55.036C59.1605 55.156 59.2835 55.237 59.4275 55.279C59.5775 55.327 59.7485 55.351 59.9405 55.351C60.3005 55.351 60.6095 55.264 60.8675 55.09C61.1255 54.916 61.3085 54.655 61.4165 54.307L61.8665 54.505ZM59.6345 50.662C59.4965 50.662 59.3735 50.683 59.2655 50.725C59.1575 50.767 59.0645 50.842 58.9865 50.95C58.9145 51.058 58.8575 51.208 58.8155 51.4C58.7795 51.586 58.7615 51.829 58.7615 52.129V52.876H60.3185V52.021C60.3305 51.529 60.2855 51.181 60.1835 50.977C60.0815 50.767 59.8985 50.662 59.6345 50.662ZM64.7858 51.616C64.7858 51.826 64.7168 51.994 64.5788 52.12C64.4468 52.24 64.2578 52.3 64.0118 52.3C63.7358 52.3 63.5348 52.222 63.4088 52.066C63.2828 51.91 63.2198 51.739 63.2198 51.553C63.2198 51.343 63.2798 51.163 63.3998 51.013C63.5258 50.863 63.6908 50.743 63.8948 50.653C64.0988 50.557 64.3328 50.488 64.5968 50.446C64.8668 50.404 65.1458 50.383 65.4338 50.383C65.9378 50.383 66.3488 50.446 66.6668 50.572C66.9908 50.692 67.2428 50.848 67.4228 51.04C67.6088 51.226 67.7348 51.43 67.8008 51.652C67.8728 51.868 67.9088 52.072 67.9088 52.264V55.27H68.4308V55.549H66.1988V55.27C66.0008 55.408 65.7698 55.504 65.5058 55.558C65.2478 55.612 64.9688 55.639 64.6688 55.639C64.4168 55.639 64.1798 55.603 63.9578 55.531C63.7418 55.459 63.5498 55.357 63.3818 55.225C63.2198 55.093 63.0908 54.937 62.9948 54.757C62.8988 54.571 62.8508 54.367 62.8508 54.145C62.8508 53.989 62.8658 53.845 62.8958 53.713C62.9258 53.581 62.9798 53.461 63.0578 53.353C63.1418 53.245 63.2498 53.149 63.3818 53.065C63.5198 52.975 63.6968 52.894 63.9128 52.822C64.1348 52.75 64.3778 52.699 64.6418 52.669C64.9058 52.633 65.1518 52.591 65.3798 52.543C65.6138 52.495 65.8088 52.429 65.9648 52.345C66.1208 52.255 66.1988 52.12 66.1988 51.94V51.679C66.1988 51.607 66.1958 51.514 66.1898 51.4C66.1898 51.286 66.1658 51.175 66.1178 51.067C66.0698 50.959 65.9828 50.866 65.8568 50.788C65.7368 50.704 65.5598 50.662 65.3258 50.662C65.2598 50.662 65.1788 50.668 65.0828 50.68C64.9868 50.692 64.8908 50.707 64.7948 50.725C64.6988 50.743 64.6088 50.764 64.5248 50.788C64.4468 50.812 64.3898 50.839 64.3538 50.869C64.5158 50.935 64.6268 51.037 64.6868 51.175C64.7528 51.307 64.7858 51.454 64.7858 51.616ZM66.1988 52.552C66.1148 52.636 66.0038 52.705 65.8658 52.759C65.7338 52.813 65.5958 52.873 65.4518 52.939C65.3318 52.993 65.2148 53.05 65.1008 53.11C64.9928 53.17 64.8968 53.245 64.8128 53.335C64.7288 53.425 64.6628 53.536 64.6148 53.668C64.5668 53.8 64.5428 53.962 64.5428 54.154C64.5428 54.274 64.5518 54.4 64.5698 54.532C64.5938 54.658 64.6358 54.775 64.6958 54.883C64.7618 54.985 64.8518 55.069 64.9658 55.135C65.0798 55.201 65.2298 55.234 65.4158 55.234C65.4938 55.234 65.5778 55.222 65.6678 55.198C65.7578 55.18 65.8418 55.147 65.9198 55.099C65.9978 55.051 66.0638 54.991 66.1178 54.919C66.1718 54.847 66.1988 54.757 66.1988 54.649V52.552ZM73.1779 53.677V50.752H72.5479V50.473H74.8789V55.27H75.5089V55.549H73.2679V54.622C72.7339 55.3 72.0859 55.639 71.3239 55.639C70.7299 55.639 70.2949 55.492 70.0189 55.198C69.7489 54.904 69.6139 54.511 69.6139 54.019V50.752H68.9839V50.473H71.3149V54.658C71.3149 54.862 71.3539 55.012 71.4319 55.108C71.5099 55.204 71.6089 55.252 71.7289 55.252C71.9149 55.252 72.0949 55.204 72.2689 55.108C72.4429 55.012 72.5959 54.889 72.7279 54.739C72.8659 54.589 72.9739 54.421 73.0519 54.235C73.1359 54.043 73.1779 53.857 73.1779 53.677ZM78.3813 50.473H79.1103V50.752H78.3813V54.865C78.3813 55.015 78.4173 55.114 78.4893 55.162C78.5673 55.216 78.6873 55.243 78.8493 55.243H79.1553V55.549H77.8143C77.6463 55.549 77.4903 55.528 77.3463 55.486C77.2083 55.45 77.0883 55.384 76.9863 55.288C76.8903 55.198 76.8153 55.075 76.7613 54.919C76.7073 54.763 76.6803 54.568 76.6803 54.334V50.752H75.9603V50.473H76.6803V49.402L78.3813 48.745V50.473ZM79.1178 56.53C79.1178 56.416 79.1418 56.308 79.1898 56.206C79.2318 56.104 79.2888 56.014 79.3608 55.936C79.4388 55.864 79.5288 55.804 79.6308 55.756C79.7328 55.714 79.8408 55.693 79.9548 55.693C80.0688 55.693 80.1768 55.714 80.2788 55.756C80.3808 55.804 80.4678 55.864 80.5398 55.936C80.6178 56.014 80.6778 56.104 80.7198 56.206C80.7678 56.308 80.7918 56.416 80.7918 56.53C80.7918 56.68 80.7528 56.818 80.6748 56.944C80.8068 56.872 80.9208 56.773 81.0168 56.647C81.1128 56.521 81.2028 56.377 81.2868 56.215L81.6918 55.324L79.6848 50.752H79.2618V50.473H81.9528V50.752H81.4128L82.5738 53.605L83.8428 50.752H83.1858V50.473H84.6618V50.752H84.2928L81.6198 56.431C81.5418 56.599 81.4398 56.743 81.3138 56.863C81.1938 56.989 81.0588 57.088 80.9088 57.16C80.7588 57.238 80.6028 57.295 80.4408 57.331C80.2788 57.367 80.1168 57.379 79.9548 57.367C79.8408 57.367 79.7328 57.343 79.6308 57.295C79.5288 57.253 79.4388 57.193 79.3608 57.115C79.2888 57.043 79.2318 56.956 79.1898 56.854C79.1418 56.752 79.1178 56.644 79.1178 56.53Z" fill="black"/>
</svg>
