<svg width="90" height="95" viewBox="0 0 90 95" fill="none" xmlns="http://www.w3.org/2000/svg">
<path d="M88.0008 2.09961H1.80078V92.8996H88.0008V2.09961Z" fill="#FF5855"/>
<path d="M88.0004 94.8002H1.80039C0.80039 94.8002 -0.0996094 94.0002 -0.0996094 92.9002V2.1002C-0.0996094 1.1002 0.70039 0.200195 1.80039 0.200195H88.0004C89.0004 0.200195 89.9004 1.0002 89.9004 2.1002V92.9002C89.9004 93.9002 89.0004 94.8002 88.0004 94.8002ZM3.60039 91.0002H86.1004V4.0002H3.60039V91.0002Z" fill="#581166"/>
<path d="M80.5004 6.90039H9.90039V70.8004H80.5004V6.90039Z" fill="white"/>
<path d="M80.5 72.7H9.9C8.9 72.7 8 71.9 8 70.8V6.9C8 5.9 8.8 5 9.9 5H80.5C81.5 5 82.4 5.8 82.4 6.9V70.8C82.3 71.9 81.5 72.7 80.5 72.7ZM11.8 68.9H78.6V8.8H11.8V68.9Z" fill="#581166"/>
<path d="M9.59961 72.6998L33.6996 40.7998L57.6996 72.6998H9.59961Z" fill="#FFDA8E"/>
<path d="M57.699 74.5998H9.59904C8.89904 74.5998 8.19904 74.1998 7.89904 73.5998C7.59904 72.9998 7.69904 72.1998 8.09904 71.5998L32.199 39.5998C32.899 38.6998 34.499 38.6998 35.199 39.5998L59.299 71.5998C59.699 72.1998 59.799 72.8998 59.499 73.5998C59.099 74.1998 58.399 74.5998 57.699 74.5998ZM13.399 70.7998H53.999L33.699 43.7998L13.399 70.7998Z" fill="#581166"/>
<path d="M57.699 74.5998H9.59904C8.89904 74.5998 8.19904 74.1998 7.89904 73.5998C7.59904 72.9998 7.69904 72.1998 8.09904 71.5998L32.199 39.5998C32.899 38.6998 34.499 38.6998 35.199 39.5998L59.299 71.5998C59.699 72.1998 59.799 72.8998 59.499 73.5998C59.099 74.1998 58.399 74.5998 57.699 74.5998ZM13.399 70.7998H53.999L33.699 43.7998L13.399 70.7998Z" fill="#581166"/>
<path d="M32.0996 72.6998L56.0996 40.7998L80.1996 72.6998H32.0996Z" fill="#FFDA8E"/>
<path d="M80.199 74.5998H32.099C31.399 74.5998 30.699 74.1998 30.399 73.5998C30.099 72.9998 30.199 72.1998 30.599 71.5998L54.699 39.5998C55.399 38.6998 56.999 38.6998 57.699 39.5998L81.799 71.5998C82.199 72.1998 82.299 72.8998 81.999 73.5998C81.499 74.1998 80.899 74.5998 80.199 74.5998ZM35.799 70.7998H76.399L56.099 43.7998L35.799 70.7998Z" fill="#581166"/>
<path d="M80.199 74.5998H32.099C31.399 74.5998 30.699 74.1998 30.399 73.5998C30.099 72.9998 30.199 72.1998 30.599 71.5998L54.699 39.5998C55.399 38.6998 56.999 38.6998 57.699 39.5998L81.799 71.5998C82.199 72.1998 82.299 72.8998 81.999 73.5998C81.499 74.1998 80.899 74.5998 80.199 74.5998ZM35.799 70.7998H76.399L56.099 43.7998L35.799 70.7998Z" fill="#581166"/>
<path d="M44.8996 33.3002C50.0359 33.3002 54.1996 29.1364 54.1996 24.0002C54.1996 18.8639 50.0359 14.7002 44.8996 14.7002C39.7634 14.7002 35.5996 18.8639 35.5996 24.0002C35.5996 29.1364 39.7634 33.3002 44.8996 33.3002Z" fill="#FFDA8E"/>
<path d="M44.8992 35.1998C38.6992 35.1998 33.6992 30.1998 33.6992 23.9998C33.6992 17.7998 38.6992 12.7998 44.8992 12.7998C51.0992 12.7998 56.0992 17.7998 56.0992 23.9998C56.0992 30.1998 51.0992 35.1998 44.8992 35.1998ZM44.8992 16.5998C40.7992 16.5998 37.4992 19.8998 37.4992 23.9998C37.4992 28.0998 40.7992 31.3998 44.8992 31.3998C48.9992 31.3998 52.2992 28.0998 52.2992 23.9998C52.2992 19.8998 48.9992 16.5998 44.8992 16.5998Z" fill="#581166"/>
<path d="M79.0004 81.5998H61.3004C60.3004 81.5998 59.4004 80.7998 59.4004 79.6998C59.4004 78.5998 60.2004 77.7998 61.3004 77.7998H79.0004C80.0004 77.7998 80.9004 78.5998 80.9004 79.6998C80.9004 80.7998 80.0004 81.5998 79.0004 81.5998Z" fill="#581166"/>
<path d="M78.9992 88.0998H71.0992C70.0992 88.0998 69.1992 87.2998 69.1992 86.1998C69.1992 85.0998 69.9992 84.2998 71.0992 84.2998H78.9992C79.9992 84.2998 80.8992 85.0998 80.8992 86.1998C80.8992 87.2998 79.9992 88.0998 78.9992 88.0998Z" fill="#581166"/>
<g opacity="0.5">
<path d="M42.3996 51.9004L26.5996 72.7004H31.1996L44.4996 55.0004" fill="#581166"/>
</g>
</svg>
